<svg t="1630085497995" class="icon" viewBox="0 0 1024 1024" version="1.1" xmlns="http://www.w3.org/2000/svg" p-id="3456" width="200" height="200"><path d="M896 128a85.333333 85.333333 0 0 1 85.333333 85.333333v597.333334a85.333333 85.333333 0 0 1-85.333333 85.333333H128a85.333333 85.333333 0 0 1-85.333333-85.333333V213.333333a85.333333 85.333333 0 0 1 85.333333-85.333333h768z m13.312 154.666667a32 32 0 0 0-43.690667-11.733334l-353.493333 204.074667-353.194667-203.904-3.925333-1.92a32 32 0 0 0-28.074667 57.344l368.768 212.949333a32 32 0 0 0 36.224-1.962666l365.653334-211.114667 3.626666-2.432a32 32 0 0 0 8.106667-41.301333z" p-id="3457"></path></svg>